<svg width="25" height="25" viewBox="0 0 25 25" fill="none" xmlns="http://www.w3.org/2000/svg">
<rect x="0.25" y="0.25" width="23.5" height="23.5" rx="1.75" transform="translate(0.929688 0.537109)" stroke="#E6E9F6" stroke-width="0.5"/>
<path d="M7.79978 9.2752C5.23383 12.5872 2.08656 11.5949 1.58855 11.345C0.3463 11.0136 -0.0683999 8.77719 1.50524 8.03295C4.07304 7.20541 6.39092 8.11626 8.04786 8.94381C7.8831 9.19189 7.79978 9.2752 7.79978 9.2752ZM10.5342 8.36434C11.6931 6.29455 12.1078 4.30621 12.1078 4.30621H8.21448V2.81588H12.7688V2.23642H8.21448V0H6.14469V2.23642H2.00325V2.89919H6.14469V4.38952H2.66603V5.0523H9.78812C9.78812 5.13561 9.78812 5.13561 9.70481 5.30038C9.70481 6.04647 9.20865 7.03879 8.79395 7.86819C3.49357 5.79654 2.00325 7.03878 1.58855 7.20541C-1.88826 9.6899 1.34047 12.8372 1.91994 12.7539C5.64668 13.5814 8.04786 12.0078 9.70481 10.0213C9.78812 10.1046 9.95289 10.1046 10.0362 10.1046C11.197 10.7655 16.6621 13.3333 16.6621 13.3333V10.1861C15.668 10.1027 12.6873 9.11043 10.5342 8.36434Z" transform="translate(4.92969 5.87109)" fill="#00A0E9"/>
</svg>
