<svg width="25" height="25" viewBox="0 0 25 25" fill="none" xmlns="http://www.w3.org/2000/svg">
<rect x="0.25" y="0.25" width="23.5" height="23.5" rx="1.75" transform="translate(0.929688 0.794922)" stroke="#E6E9F6" stroke-width="0.5"/>
<path d="M14.344 1.18863e-07H0.777034C0.675048 -5.6304e-05 0.574051 0.0199753 0.479807 0.0589512C0.385564 0.0979271 0.29992 0.155084 0.227766 0.227158C0.155612 0.299233 0.0983599 0.384814 0.0592798 0.479014C0.0201997 0.573214 5.63931e-05 0.67419 0 0.776175L0 2.83452H15.1197V0.776175C15.1197 0.67419 15.0995 0.573214 15.0604 0.479014C15.0214 0.384814 14.9641 0.299233 14.892 0.227158C14.8198 0.155084 14.7342 0.0979271 14.6399 0.0589512C14.5457 0.0199753 14.4447 -5.6304e-05 14.3427 1.18863e-07H14.344ZM12.4781 7.45076H12.3166C12.3166 7.45849 12.3123 7.47181 12.3123 7.47181L12.2753 7.64362L12.183 8.02505H12.3252C12.329 8.00787 12.3496 7.9065 12.3501 7.9065C12.3505 7.9065 12.3677 7.83176 12.369 7.82918C12.3721 7.82492 12.3761 7.82128 12.3806 7.81845H12.3887C12.4665 7.81845 12.5541 7.81845 12.6228 7.76819C12.6705 7.73147 12.7034 7.6789 12.7156 7.62C12.7197 7.60312 12.7219 7.58583 12.722 7.56846C12.7232 7.54513 12.7167 7.52206 12.7036 7.50274C12.6684 7.45377 12.5988 7.45291 12.518 7.45248H12.4785L12.4781 7.45076ZM12.57 7.63031C12.5663 7.64849 12.5585 7.66563 12.5474 7.68048C12.5363 7.69533 12.522 7.70754 12.5056 7.71622C12.4765 7.72786 12.4452 7.73271 12.4141 7.73039H12.3926V7.7218L12.4321 7.54998V7.53409H12.4476L12.5305 7.54139C12.5463 7.5484 12.5589 7.56121 12.5656 7.57718C12.5723 7.59315 12.5726 7.61108 12.5666 7.6273L12.57 7.63031ZM12.6357 8.62641H12.6048L12.7203 8.24369H12.7586L12.7706 8.2046V8.24755C12.7706 8.27462 12.7903 8.29867 12.8466 8.29437H12.9115L12.9338 8.22049H12.9093C12.8956 8.22049 12.8891 8.21706 12.8896 8.20976V8.1668H12.7697C12.7103 8.16708 12.651 8.17038 12.5919 8.17668C12.571 8.18332 12.5513 8.19317 12.5335 8.20589L12.5451 8.16637H12.433L12.4098 8.24498L12.2925 8.63156H12.2697L12.247 8.70458H12.4708L12.463 8.7295H12.573L12.5803 8.70458H12.6112L12.6353 8.62555L12.6357 8.62641ZM12.4952 8.62555H12.4093L12.4355 8.53964H12.5249L12.4991 8.62555H12.4952ZM12.5489 8.45975C12.5489 8.45975 12.521 8.46318 12.5026 8.46748C12.4846 8.47394 12.4671 8.48154 12.4501 8.49024L12.4806 8.38844H12.5704L12.5485 8.45975H12.5489ZM12.5485 8.32015C12.531 8.32576 12.5138 8.33235 12.497 8.3399L12.5266 8.2424H12.6155L12.594 8.3137C12.5786 8.31473 12.5632 8.31688 12.5481 8.32015H12.5485ZM12.137 8.51C12.1359 8.51421 12.1335 8.51796 12.1301 8.52074C12.1247 8.52351 12.1186 8.5247 12.1125 8.52418H12.0876V8.48122H11.9841L11.9798 8.68697C11.9798 8.70158 11.9798 8.71017 11.9918 8.71704C12.0205 8.72696 12.051 8.73034 12.0812 8.72692H12.1456L12.1684 8.65003L12.113 8.6569H12.0945C12.0916 8.656 12.0889 8.65437 12.0868 8.65218C12.0842 8.6496 12.0803 8.65218 12.0812 8.63629V8.58388L12.1396 8.58173C12.1499 8.58238 12.1603 8.58092 12.17 8.57745C12.1798 8.57398 12.1887 8.56857 12.1963 8.56155C12.206 8.55217 12.2126 8.54002 12.2152 8.52675L12.2251 8.47993H12.1443L12.1344 8.51258L12.137 8.51ZM12.637 7.86827C12.6267 7.91123 12.6147 7.99327 12.689 8.02248C12.7098 8.03137 12.7324 8.03548 12.7551 8.0345C12.7786 8.03192 12.8006 8.02182 12.8178 8.00572L12.8127 8.02548L12.8161 8.02978C12.8698 8.02763 12.8861 8.02763 12.945 8.02978L12.9501 8.02591C12.9583 7.97652 12.9669 7.92841 12.9884 7.83391C12.9987 7.78867 13.0094 7.74356 13.0206 7.69861V7.69345C12.9609 7.70462 12.9454 7.70677 12.8883 7.71493L12.884 7.71836V7.73168C12.874 7.71562 12.8589 7.70349 12.841 7.69732C12.8159 7.69426 12.7905 7.69718 12.7668 7.70584C12.743 7.7145 12.7217 7.72865 12.7044 7.74714C12.6713 7.78072 12.6491 7.82356 12.6409 7.86999L12.637 7.86827ZM12.7659 7.87257C12.7787 7.81845 12.7933 7.77206 12.8311 7.77206C12.8548 7.77206 12.8677 7.79396 12.8655 7.83133C12.8655 7.84078 12.8612 7.85109 12.8586 7.86269C12.8561 7.87429 12.8513 7.89404 12.847 7.90951C12.8436 7.92004 12.8387 7.93002 12.8324 7.93915C12.8266 7.94582 12.8195 7.95124 12.8115 7.95508C12.8036 7.95892 12.7949 7.9611 12.786 7.96148C12.7822 7.96148 12.759 7.96148 12.7581 7.92712C12.7587 7.9087 12.7613 7.89041 12.7659 7.87257ZM11.4467 7.86355C11.4364 7.9065 11.4244 7.9894 11.4987 8.01947C11.5235 8.02821 11.5497 8.03243 11.576 8.03193C11.6041 8.03257 11.6319 8.02736 11.6578 8.01664C11.6837 8.00592 11.707 7.98991 11.7264 7.96964C11.7523 7.93701 11.7703 7.89876 11.7788 7.85796C11.7955 7.78451 11.7826 7.75058 11.7663 7.7291C11.7517 7.71383 11.7339 7.70204 11.7141 7.69461C11.6943 7.68717 11.6731 7.68428 11.6521 7.68615C11.5997 7.68416 11.5485 7.70194 11.5086 7.73597C11.4755 7.7699 11.4533 7.813 11.445 7.85968L11.4467 7.86355ZM11.5705 7.86312C11.5829 7.80728 11.5979 7.76089 11.6357 7.76089C11.6654 7.76089 11.6675 7.79525 11.6542 7.85152C11.6492 7.87878 11.6398 7.90505 11.6263 7.92927C11.6227 7.93572 11.6175 7.9412 11.6113 7.94524C11.6051 7.94928 11.598 7.95175 11.5906 7.95246C11.5868 7.95246 11.5636 7.95246 11.5627 7.91724C11.563 7.89894 11.5656 7.88076 11.5705 7.86312ZM11.5163 8.40863H11.5846L11.5666 8.47005H11.4974L11.4747 8.54565H11.5434L11.5034 8.67838C11.5016 8.68394 11.5014 8.68989 11.5028 8.69558C11.5041 8.70126 11.5071 8.70646 11.5112 8.7106C11.5135 8.71477 11.5167 8.71839 11.5206 8.7212C11.5244 8.72402 11.5288 8.72597 11.5335 8.72692C11.5439 8.72964 11.5546 8.73109 11.5653 8.73121H11.7045L11.7294 8.64874L11.6675 8.65733C11.6555 8.65733 11.6246 8.65733 11.6246 8.64445L11.6546 8.54436H11.7784L11.8011 8.46963H11.6774L11.6963 8.4082H11.817L11.8393 8.33604H11.5387L11.5168 8.4082L11.5163 8.40863ZM11.7637 8.16551H11.6405L11.6095 8.22178C11.6054 8.23104 11.5991 8.23915 11.5911 8.24541C11.5823 8.24921 11.5727 8.25069 11.5632 8.2497H11.5468L11.5249 8.32229H11.579C11.5985 8.32205 11.6177 8.31719 11.6349 8.30812C11.6452 8.30254 11.6482 8.30597 11.6555 8.29781L11.674 8.28192H11.8432L11.866 8.20632H11.7418L11.7637 8.16336V8.16551ZM11.4107 7.75487C11.381 7.76046 11.3621 7.76389 11.3437 7.7669L11.2784 7.77635H11.2758C11.2728 7.79783 11.2706 7.81587 11.2668 7.83778C11.2629 7.85968 11.2582 7.88588 11.2496 7.92368C11.2461 7.93987 11.2415 7.9558 11.2358 7.97136C11.23 7.98665 11.2251 8.00229 11.2212 8.01818V8.02291C11.2479 8.02291 11.2642 8.02291 11.2835 8.02076C11.3029 8.01861 11.32 8.02076 11.3488 8.02076H11.3514L11.354 8.01861C11.3583 7.9937 11.3587 7.98682 11.3613 7.97566C11.3638 7.96449 11.3677 7.94473 11.3785 7.89705C11.3836 7.87429 11.3892 7.85195 11.3943 7.82918L11.4107 7.76089V7.75573V7.75487ZM10.5237 8.02462C10.5835 8.02665 10.6427 8.01287 10.6955 7.98468C10.7247 7.96518 10.7495 7.93985 10.7685 7.91028C10.7874 7.88071 10.8 7.84754 10.8054 7.81286L10.8136 7.78194C10.8136 7.78194 10.8849 7.49415 10.8969 7.45678C10.8967 7.4555 10.8967 7.45419 10.8969 7.45291C10.8518 7.45518 10.8066 7.45446 10.7616 7.45076C10.7578 7.46751 10.6921 7.7712 10.6916 7.7712C10.6774 7.83262 10.6671 7.87643 10.6323 7.90478C10.6127 7.921 10.5878 7.92968 10.5623 7.92927C10.5534 7.93035 10.5443 7.92954 10.5356 7.9269C10.527 7.92427 10.519 7.91986 10.5122 7.91395C10.5053 7.90805 10.4998 7.90078 10.496 7.89262C10.4921 7.88446 10.49 7.87558 10.4897 7.86655V7.85281C10.4897 7.85281 10.5026 7.77034 10.5031 7.76991C10.5035 7.76948 10.5722 7.49286 10.5847 7.45635C10.5845 7.45506 10.5845 7.45376 10.5847 7.45248C10.5313 7.45656 10.4778 7.45656 10.4244 7.45248C10.4244 7.45506 10.4202 7.47267 10.4202 7.47267L10.3519 7.78236L10.3454 7.809L10.3338 7.8949C10.3331 7.91719 10.3383 7.93928 10.3489 7.95891C10.3811 8.01517 10.4726 8.02377 10.5245 8.02377L10.5237 8.02462ZM11.412 7.65995C11.3949 7.65248 11.3762 7.64959 11.3576 7.65155C11.3391 7.6535 11.3214 7.66025 11.3063 7.67111C11.2745 7.69302 11.2706 7.72309 11.2973 7.73898C11.3144 7.74636 11.3331 7.74921 11.3516 7.74726C11.3701 7.7453 11.3878 7.7386 11.4029 7.72781C11.4343 7.70591 11.4386 7.67541 11.4115 7.65995H11.412ZM10.8411 8.01818L10.8437 8.02291C10.9004 8.02033 10.9176 8.02033 10.9665 8.02291L10.9708 8.01861C10.9768 7.9864 10.9777 7.97909 10.9914 7.91423C10.9979 7.88331 11.0116 7.81587 11.0181 7.79181C11.0291 7.78578 11.0412 7.78198 11.0537 7.78065C11.057 7.78013 11.0603 7.78013 11.0636 7.78065L10.784 8.98335C10.775 9.01167 10.7729 9.04174 10.778 9.07102C10.7831 9.10029 10.7952 9.12791 10.8132 9.15152C10.8313 9.17513 10.8547 9.19403 10.8817 9.20663C10.9086 9.21923 10.9381 9.22515 10.9678 9.22389H11.0194C10.9896 9.22526 10.96 9.2194 10.9331 9.20683C10.9061 9.19426 10.8826 9.17535 10.8645 9.15171C10.8465 9.12807 10.8344 9.10042 10.8293 9.0711C10.8243 9.04178 10.8264 9.01167 10.8355 8.98335L11.0589 8.02377H11.156L11.1615 8.01947C11.1701 7.96964 11.1727 7.95633 11.1882 7.88331L11.1959 7.8498C11.2109 7.78451 11.2182 7.75101 11.2071 7.72438C11.2013 7.71191 11.1918 7.70157 11.1799 7.69486C11.1679 7.68814 11.1541 7.6854 11.1405 7.68701H11.1375L11.2771 7.08823C11.293 7.0282 11.3257 6.97395 11.3714 6.93181C11.417 6.88967 11.4737 6.86139 11.5348 6.85027H11.4828C11.4217 6.86134 11.365 6.88961 11.3193 6.93175C11.2737 6.9739 11.241 7.02818 11.2251 7.08823L11.0821 7.69431C11.0753 7.69662 11.0687 7.69935 11.0623 7.70247C11.052 7.70806 11.0421 7.71407 11.0322 7.72008L11.0413 7.68701L11.0365 7.68099C10.9768 7.69345 10.9635 7.69517 10.9077 7.70247L10.9034 7.70591C10.8952 7.77242 10.8832 7.83839 10.8673 7.90349C10.8583 7.94172 10.8488 7.98081 10.8394 8.01904L10.8411 8.01818ZM12.7143 8.39145H12.8432L12.8243 8.45116H12.6954L12.6757 8.51687H12.7895L12.7036 8.63886C12.6995 8.64567 12.6933 8.65096 12.686 8.6539C12.6788 8.65776 12.6709 8.65996 12.6628 8.66034H12.6284L12.6065 8.73207H12.6894C12.7064 8.73229 12.7232 8.72824 12.7382 8.72028C12.7532 8.71232 12.766 8.70072 12.7753 8.68654L12.8346 8.60536L12.8475 8.68783C12.8486 8.6938 12.851 8.69943 12.8547 8.70428C12.8584 8.70912 12.8631 8.71305 12.8685 8.71575C12.8773 8.72174 12.8873 8.72583 12.8977 8.72778H12.9669L12.9914 8.64745H12.9755C12.9659 8.64797 12.9564 8.64636 12.9476 8.64273C12.9451 8.63732 12.9436 8.63149 12.9433 8.62555L12.9304 8.54308H12.8775L12.9007 8.51516H13.0296L13.0494 8.44944H12.9334L12.9523 8.38973H13.0725L13.0949 8.31585H12.7362L12.7139 8.38973L12.7143 8.39145ZM0 10.0911C5.63917e-05 10.1931 0.0201997 10.2941 0.0592798 10.3883C0.0983599 10.4825 0.155612 10.5681 0.227766 10.6401C0.29992 10.7122 0.385564 10.7694 0.479807 10.8084C0.574051 10.8473 0.675048 10.8674 0.777034 10.8673H14.344C14.5497 10.8671 14.747 10.7852 14.8924 10.6397C15.0379 10.4942 15.1196 10.2969 15.1197 10.0911V4.25285H0V10.0911ZM9.91244 8.98335L10.3544 7.08737C10.3716 7.02088 10.4096 6.96162 10.4628 6.91827C10.5161 6.87491 10.5818 6.84973 10.6504 6.8464H11.546C11.5551 6.8459 11.5643 6.8459 11.5735 6.8464H12.6645C12.6759 6.84621 12.6872 6.84722 12.6984 6.84941H13.521C13.5507 6.84822 13.5802 6.85421 13.6072 6.86686C13.6341 6.87952 13.6575 6.89846 13.6756 6.9221C13.6936 6.94574 13.7057 6.97337 13.7108 7.00266C13.7159 7.03195 13.7138 7.06204 13.7048 7.09038L13.2633 8.98636C13.2475 9.04602 13.2151 9.09997 13.1698 9.14194C13.1246 9.18392 13.0684 9.21218 13.0077 9.22346H12.0507C12.021 9.22473 11.9914 9.2188 11.9645 9.2062C11.9376 9.1936 11.9141 9.1747 11.8961 9.15109C11.878 9.12748 11.866 9.09986 11.8609 9.07059C11.8558 9.04131 11.8578 9.01124 11.8668 8.98292L11.9253 8.7325H11.9536L11.9785 8.6466L11.9442 8.65003L11.9871 8.46576H12.1576C12.1717 8.46389 12.1852 8.45938 12.1976 8.45244C12.2094 8.44636 12.2194 8.43715 12.2264 8.42581C12.2392 8.40598 12.2487 8.38423 12.2547 8.36138L12.3131 8.16766H12.1413C12.1156 8.17145 12.0902 8.17705 12.0653 8.18441C12.0603 8.18652 12.0554 8.18896 12.0507 8.19171L12.0902 8.0199H12.1044L12.1104 8.0156C12.1185 7.96578 12.1211 7.95246 12.1366 7.87944L12.1443 7.84594C12.1576 7.80822 12.1625 7.76804 12.1585 7.72824L12.3084 7.08394C12.3243 7.02388 12.357 6.9696 12.4026 6.92746C12.4483 6.88531 12.505 6.85705 12.5661 6.84597H12.5232C12.462 6.85705 12.4053 6.88531 12.3597 6.92746C12.314 6.9696 12.2814 7.02388 12.2654 7.08394L12.1246 7.68873C12.1132 7.6845 12.1011 7.68246 12.0889 7.68271C12.0623 7.68326 12.0361 7.6894 12.012 7.70075L11.9824 7.71836L11.991 7.68529L11.9862 7.67928C11.9265 7.69173 11.9132 7.69345 11.8574 7.70075L11.8531 7.70419C11.845 7.77067 11.8331 7.83664 11.8174 7.90178C11.8084 7.94001 11.7994 7.97909 11.7895 8.01732L11.7921 8.02205C11.8484 8.01947 11.8655 8.01947 11.9145 8.02205L11.9188 8.01775C11.9253 7.98554 11.9257 7.97823 11.9394 7.91337C11.9463 7.88245 11.96 7.81501 11.9665 7.79096C11.9776 7.78483 11.9899 7.78103 12.0026 7.77979C12.0301 7.77979 12.0266 7.80384 12.0258 7.81329C12.0258 7.82919 12.0146 7.88202 12.0043 7.92712L11.9974 7.9559C11.9923 7.97738 11.9871 7.99885 11.9824 8.0199V8.02377L12.0451 8.02162L12.0112 8.16766H11.9167L11.7693 8.6569C11.7651 8.67097 11.762 8.68533 11.7599 8.69986C11.7599 8.70888 11.7711 8.71747 11.7788 8.72434C11.7894 8.7297 11.8013 8.73208 11.8131 8.73121H11.8802L11.8222 8.9812C11.8132 9.00952 11.8111 9.03959 11.8162 9.06887C11.8213 9.09814 11.8334 9.12576 11.8514 9.14937C11.8695 9.17298 11.8929 9.19189 11.9199 9.20449C11.9468 9.21709 11.9763 9.22301 12.006 9.22175H11.0726C11.0635 9.22224 11.0543 9.22224 11.0451 9.22175H10.0941C10.0644 9.22301 10.0349 9.21709 10.008 9.20449C9.98107 9.19189 9.95759 9.17298 9.93955 9.14937C9.9215 9.12576 9.90942 9.09814 9.90433 9.06887C9.89924 9.03959 9.90128 9.00952 9.91029 8.9812L9.91244 8.98335ZM11.8913 8.61782L11.9377 8.46447H11.9411L11.8982 8.65175C11.8942 8.65063 11.8907 8.64821 11.8883 8.64488C11.8853 8.64101 11.8883 8.63371 11.8917 8.61825L11.8913 8.61782ZM11.9575 8.39617V8.39145V8.39617ZM12.1413 8.36138L12.1301 8.39575C12.1226 8.39513 12.115 8.39513 12.1074 8.39575H12.0013L12.0094 8.36095H12.1413V8.36138ZM12.0232 8.30211L12.0365 8.24541H12.1778L12.1654 8.28836H12.0696C12.0536 8.29112 12.0381 8.29573 12.0232 8.30211ZM4.24856 5.67119C4.24867 5.6396 4.255 5.60834 4.2672 5.5792C4.27939 5.55006 4.2972 5.52361 4.31962 5.50135C4.34203 5.47909 4.36861 5.46147 4.39784 5.44949C4.42707 5.4375 4.45837 5.43139 4.48996 5.43151H4.95214C5.01586 5.43139 5.07702 5.45656 5.1222 5.5015C5.16738 5.54644 5.19288 5.60747 5.19311 5.67119V6.37305C5.19288 6.43677 5.16738 6.4978 5.1222 6.54274C5.07702 6.58767 5.01586 6.61285 4.95214 6.61273H4.49082C4.45923 6.61285 4.42793 6.60674 4.3987 6.59475C4.36947 6.58277 4.34289 6.56515 4.32048 6.54289C4.29806 6.52063 4.28025 6.49418 4.26805 6.46504C4.25586 6.4359 4.24953 6.40464 4.24942 6.37305V5.67376L4.24856 5.67119ZM2.60214 5.67376C2.60271 5.61019 2.62842 5.54943 2.67365 5.50476C2.71889 5.46009 2.77997 5.43514 2.84354 5.43537H3.30744C3.33903 5.43526 3.37033 5.44137 3.39956 5.45335C3.42878 5.46534 3.45536 5.48296 3.47778 5.50522C3.5002 5.52747 3.51801 5.55393 3.5302 5.58307C3.54239 5.61221 3.54873 5.64346 3.54884 5.67505V6.37692C3.54873 6.40851 3.54239 6.43976 3.5302 6.4689C3.51801 6.49804 3.5002 6.5245 3.47778 6.54675C3.45536 6.56901 3.42878 6.58663 3.39956 6.59862C3.37033 6.6106 3.33903 6.61671 3.30744 6.6166H2.84354C2.81195 6.61671 2.78065 6.6106 2.75142 6.59862C2.7222 6.58663 2.69562 6.56901 2.6732 6.54675C2.65078 6.5245 2.63297 6.49804 2.62078 6.4689C2.60858 6.43976 2.60225 6.40851 2.60214 6.37692V5.67376ZM0.944983 5.67376C0.94555 5.61019 0.971261 5.54943 1.0165 5.50476C1.06173 5.46009 1.12281 5.43514 1.18638 5.43537H1.64857C1.71214 5.43514 1.77322 5.46009 1.81845 5.50476C1.86369 5.54943 1.8894 5.61019 1.88997 5.67376V6.37563C1.88985 6.40722 1.88352 6.43847 1.87133 6.46761C1.85913 6.49676 1.84132 6.52321 1.81891 6.54547C1.79649 6.56772 1.76991 6.58535 1.74068 6.59733C1.71146 6.60931 1.68015 6.61542 1.64857 6.61531H1.18638C1.15476 6.61542 1.12342 6.6093 1.09417 6.59729C1.06491 6.58528 1.03831 6.56762 1.01589 6.54531C0.993469 6.52301 0.975665 6.49651 0.963498 6.46732C0.951331 6.43813 0.945039 6.40682 0.944983 6.3752V5.67376ZM13.0012 8.21233C12.9991 8.216 12.9957 8.21887 12.9918 8.22049C12.9863 8.22251 12.9805 8.22339 12.9746 8.22307H12.9604L12.9385 8.29437H13.0124C13.0297 8.29551 13.047 8.29167 13.0623 8.2833C13.0775 8.27493 13.09 8.26237 13.0983 8.24712L13.417 7.68873L13.4127 7.68357C13.3539 7.6956 13.3432 7.69732 13.289 7.70462L13.2852 7.70848C13.2851 7.70934 13.2851 7.7102 13.2852 7.71106C13.2448 7.80427 13.2461 7.78408 13.2134 7.8571V7.84808L13.2053 7.68959L13.2001 7.68443C13.1387 7.69646 13.137 7.69818 13.0799 7.70548L13.0751 7.70934V7.71536C13.0808 7.74375 13.085 7.77243 13.0876 7.80126C13.091 7.82919 13.0953 7.85796 13.0983 7.88717C13.1039 7.93356 13.1073 7.95676 13.1142 8.02763C13.076 8.0912 13.0665 8.11354 13.0283 8.1711L13.0025 8.21405L13.0012 8.21233Z" transform="translate(5.37256 7.3125)" fill="#F2994A"/>
</svg>
