<?xml version="1.0" encoding="UTF-8"?>
<svg width="28px" height="28px" viewBox="0 0 28 28" version="1.1" xmlns="http://www.w3.org/2000/svg" xmlns:xlink="http://www.w3.org/1999/xlink">
    <!-- Generator: Sketch 51.2 (57519) - http://www.bohemiancoding.com/sketch -->
    <title>Group 4</title>
    <desc>Created with Sketch.</desc>
    <defs></defs>
    <g id="Page-1" stroke="none" stroke-width="1" fill="none" fill-rule="evenodd">
        <g id="Home" transform="translate(-80.000000, -714.000000)" fill-rule="nonzero">
            <g id="Group-6" transform="translate(80.000000, 592.000000)">
                <g id="Rectangle-6-Copy-3-+-Rectangle-6-Copy-2-+-Rectangle-6-Copy-+-Rectangle-6-+-Rectangle-6-Copy-4-+-Rectangle-4-+-Rectangle-4-Copy-2-Mask" transform="translate(0.000000, 52.000000)">
                    <g id="Group-4" transform="translate(0.000000, 70.000000)">
                        <path d="M3.09480836e-15,14 C-7.453141e-08,19.0017183 2.66838483,23.6234967 6.99999994,26.1243558 C11.331615,28.625215 16.668385,28.625215 21.0000001,26.1243558 C25.3316152,23.6234967 28.0000001,19.0017183 28,14 C28,6.2680135 21.7319865,4.4211548e-16 14,0 C6.2680135,-4.4211548e-16 6.6317322e-16,6.2680135 3.09480836e-15,14 Z" id="Shape" fill="#F5A623"></path>
                        <path d="M18.45088,14.28704 C18.45088,14.28704 20.70488,13.71696 20.31288,10.92704 C20.08888,9.34 18.25992,8.60304 17.34488,8.41656 L17.94744,6.02984 L16.37328,5.658 L15.75728,8.04752 C15.75728,8.04752 15.18048,7.89576 14.52528,7.75128 L15.13456,5.35952 L13.59008,5 L12.96848,7.38224 L9.89744,6.63912 L9.4696,8.35048 L10.83264,8.6904 C11.1626638,8.77286328 11.3722584,9.0970493 11.312,9.43184 L11.312,9.44304 C11.13,10.28304 9.69136,16.06056 9.69136,16.06056 C9.66949564,16.1697391 9.62976169,16.274561 9.57376,16.3708 C9.44651962,16.6575107 9.13162671,16.8112956 8.82728,16.73536 L8.81888,16.73536 C8.77216331,16.7300025 8.72579341,16.7219625 8.68,16.71128 C8.36584,16.64072 8.1004,16.56568 7.92792,16.5136 L7.70896,16.4576 L7,18.4036 L10.04752,19.1232 L9.464,21.52616 L11.0152,21.8924 L11.60992,19.49 L12.88168,19.79016 L12.29648,22.19256 L13.82696,22.55432 L14.41944,20.14632 C14.41944,20.14632 18.1804,21.04232 19.41688,18.81632 C20.51056,16.85128 20.29888,15.46304 18.45088,14.28704 Z M15.70688,18.08104 C14.62888,18.52904 12.04336,17.56752 12.04336,17.56752 L12.92088,14.24504 C13.94736,14.36656 16.26744,14.93328 16.63648,15.68928 C17.06544,16.58528 16.78488,17.63304 15.70688,18.08104 Z M15.73936,13.13456 C14.93688,13.19056 13.28488,12.70504 13.28488,12.70504 L14.05712,9.45424 C16.45616,10.07024 17.24296,10.50928 17.34488,11.55704 C17.43728,12.51184 16.54184,13.07856 15.73936,13.13456 Z" id="Shape" fill="#FFFFFF" transform="translate(13.679333, 13.777160) rotate(-15.000000) translate(-13.679333, -13.777160) "></path>
                    </g>
                </g>
            </g>
        </g>
    </g>
</svg>