<?xml version="1.0" encoding="UTF-8"?>
<svg width="28px" height="28px" viewBox="0 0 28 28" version="1.1" xmlns="http://www.w3.org/2000/svg" xmlns:xlink="http://www.w3.org/1999/xlink">
    <!-- Generator: Sketch 51.2 (57519) - http://www.bohemiancoding.com/sketch -->
    <title>Group 5</title>
    <desc>Created with Sketch.</desc>
    <defs></defs>
    <g id="Page-1" stroke="none" stroke-width="1" fill="none" fill-rule="evenodd">
        <g id="Home" transform="translate(-80.000000, -826.000000)" fill-rule="nonzero">
            <g id="Group-6" transform="translate(80.000000, 592.000000)">
                <g id="Rectangle-6-Copy-3-+-Rectangle-6-Copy-2-+-Rectangle-6-Copy-+-Rectangle-6-+-Rectangle-6-Copy-4-+-Rectangle-4-+-Rectangle-4-Copy-2-Mask" transform="translate(0.000000, 52.000000)">
                    <g id="Group-5" transform="translate(0.000000, 182.000000)">
                        <circle id="Oval-2-Copy-2" fill-opacity="0.6" fill="#3174B2" cx="14" cy="14" r="14"></circle>
                        <path d="M17.487214,19.0825489 C15.3801875,20.5745857 12.599495,20.6952078 10.383545,19.4444151 L9.71715773,20.6894398 L8.48284227,20.0287846 L9.2351038,18.6233193 C9.13731486,18.5363496 9.04147631,18.4459965 8.94773991,18.3522601 C6.35075337,15.7552736 6.35075337,11.5447264 8.94773991,8.94773991 C11.5447264,6.35075337 15.7552736,6.35075337 18.3522601,8.94773991 L17.3623106,9.9376894 C15.3120581,7.88743687 11.9879419,7.88743687 9.9376894,9.9376894 C7.89344643,11.9819324 7.88745448,15.2925821 9.91971354,17.3442491 L13.9978002,9.72507793 L18.186509,17.4368234 L20.3679911,13.0097178 L21.623807,13.6285284 L18.247014,20.481401 L17.487214,19.0825489 Z M11.0445768,18.2093961 C12.845424,19.2398992 15.1264761,19.1171327 16.8129071,17.8410965 L14.0068497,12.6749221 L11.0445768,18.2093961 Z" id="Combined-Shape" fill="#FFFFFF"></path>
                    </g>
                </g>
            </g>
        </g>
    </g>
</svg>