<?xml version="1.0" encoding="UTF-8"?>
<svg width="28px" height="28px" viewBox="0 0 28 28" version="1.1" xmlns="http://www.w3.org/2000/svg" xmlns:xlink="http://www.w3.org/1999/xlink">
    <!-- Generator: Sketch 51.2 (57519) - http://www.bohemiancoding.com/sketch -->
    <title>cny</title>
    <desc>Created with Sketch.</desc>
    <defs></defs>
    <g id="Page-1" stroke="none" stroke-width="1" fill="none" fill-rule="evenodd">
        <g id="Home" transform="translate(-80.000000, -879.000000)" fill="#4A90E2" fill-rule="nonzero">
            <g id="Group-6" transform="translate(80.000000, 592.000000)">
                <g id="Rectangle-6-Copy-3-+-Rectangle-6-Copy-2-+-Rectangle-6-Copy-+-Rectangle-6-+-Rectangle-6-Copy-4-+-Rectangle-4-+-Rectangle-4-Copy-2-Mask" transform="translate(0.000000, 52.000000)">
                    <path d="M14,235 C6.26795896,235 0,241.267959 0,249 C0,256.732041 6.26795896,263 14,263 C21.732041,263 28,256.732041 28,249 C28,241.267959 21.732041,235 14,235 Z M19.5989105,241.890654 L14.8615918,248.742582 L18.4144323,248.742582 C18.7109727,248.742582 18.9432331,248.996632 18.9432331,249.27069 C18.9432331,249.58803 18.7109727,249.842674 18.4144323,249.842674 L14.798104,249.842674 L14.798104,252.147549 L18.4144323,252.147549 C18.7109727,252.147549 18.9432331,252.401005 18.9432331,252.696753 C18.9432331,252.99359 18.7109727,253.247046 18.4144323,253.247046 L14.798104,253.247046 L14.798104,256.588129 C14.798104,257.032444 14.4389671,257.370881 13.9948497,257.370881 C13.5509303,257.370881 13.1911001,257.032543 13.1911001,256.588129 L13.1911001,253.247046 L9.57467278,253.247046 C9.3002193,253.247046 9.04656526,252.99359 9.04656526,252.696753 C9.04656526,252.401104 9.3002193,252.147549 9.57467278,252.147549 L13.191001,252.147549 L13.191001,249.842674 L9.57467278,249.842674 C9.3002193,249.842674 9.04656526,249.58803 9.04656526,249.27069 C9.04656526,248.996632 9.3002193,248.742582 9.57467278,248.742582 L13.148907,248.742582 L8.39098692,241.890654 C8.15783515,241.510124 8.24271667,241.023021 8.62324727,240.769565 C8.96188187,240.516109 9.46918998,240.621988 9.72294306,240.95983 L13.8680722,246.965815 C13.8894659,247.008504 13.9529537,247.050697 13.9948497,247.050697 C14.0370428,247.050697 14.1005306,247.008504 14.1219243,246.965815 L18.2670534,240.95983 C18.5207074,240.621988 19.0281146,240.516109 19.3872515,240.769565 C19.7473789,241.023021 19.8527627,241.510025 19.5989105,241.890654 Z" id="cny"></path>
                </g>
            </g>
        </g>
    </g>
</svg>