<svg width="25" height="25" viewBox="0 0 25 25" fill="none" xmlns="http://www.w3.org/2000/svg">
<rect x="0.25" y="0.25" width="23.5" height="23.5" rx="1.75" transform="translate(0.929688 0.205078)" stroke="#E6E9F6" stroke-width="0.5"/>
<path d="M5.33725 8.81562C4.49928 9.3218 4.37498 8.53158 4.37498 8.53158L3.32485 5.87718C2.92071 4.61579 3.67452 5.30847 3.67452 5.30847C3.67452 5.30847 4.32132 5.83845 4.81225 6.16138C5.30288 6.48447 5.8621 6.25626 5.8621 6.25626L12.7278 2.82365C11.461 1.11627 9.36861 0 6.99966 0C3.13366 0 0 2.97079 0 6.63567C0 8.74391 1.03756 10.6199 2.65393 11.8359L2.36242 13.6509C2.36242 13.6509 2.22023 14.1807 2.71273 13.9349C3.04825 13.7676 3.90366 13.1668 4.41294 12.8017C5.23985 13.1132 6.11635 13.2724 7 13.2715C10.8657 13.2715 14 10.3007 14 6.63582C14 5.57432 13.7358 4.57178 13.2681 3.68183C11.0805 5.10735 5.99276 8.42037 5.33725 8.81562Z" transform="translate(5.92969 5.43359)" fill="#24AF41"/>
</svg>
