<?xml version="1.0" encoding="UTF-8"?>
<svg width="45px" height="65px" viewBox="0 0 45 65" version="1.1" xmlns="http://www.w3.org/2000/svg" xmlns:xlink="http://www.w3.org/1999/xlink">
    <!-- Generator: Sketch 52.2 (67145) - http://www.bohemiancoding.com/sketch -->
    <title>01_01.icon0101.eb41e8e7</title>
    <desc>Created with Sketch.</desc>
    <g id="Page-1" stroke="none" stroke-width="1" fill="none" fill-rule="evenodd">
        <g id="Home-Copy-2" transform="translate(-208.000000, -944.000000)">
            <g id="Group-4" transform="translate(209.000000, 932.000000)">
                <g id="01_01.icon0101.eb41e8e7" transform="translate(0.000000, 14.000000)">
                    <g id="Group-37">
                        <path d="M21.9293193,0 C19.3159488,2.13161899 0.888242761,15.6324167 11.5214292,38.7148892 C12.7583957,40.2712421 17.0139879,42.9634354 22.2830711,42.9634354 C25.2341151,42.9634354 30.1358283,42.1864016 32.545534,38.7148892 C34.2683681,34.4402243 42.6319522,14.8912963 21.9293193,0 Z" id="Path-7" stroke="#B2BFCF" stroke-width="2.2" fill-opacity="0.0599999987" fill="#3DADD9" fill-rule="nonzero" stroke-linecap="round"></path>
                        <circle id="Oval-3" stroke="#B2BFCF" stroke-width="2.2" fill-rule="nonzero" cx="21.9570578" cy="21.0246599" r="5.48469388"></circle>
                        <path d="M40.244261,30.4583333 C36.2542007,32.1599107 34.2050955,35.0676541 33.661323,36.3877269 C32.8051626,38.8874377 33.1661528,46.464003 33.661323,47.3165421 C35.9332358,48.0482429 42.2189246,40.4121764 42.6455387,38.5835374" id="Path-8-Copy" stroke="#B2BFCF" stroke-width="2.2" stroke-linecap="round" transform="translate(37.895686, 38.912059) scale(-1, 1) translate(-37.895686, -38.912059) "></path>
                        <path d="M7.90639858,30.4583333 C3.91633819,32.1599107 1.86723298,35.0676541 1.32346058,36.3877269 C0.467300166,38.8874377 0.82829033,46.464003 1.32346058,47.3165421 C3.59537333,48.0482429 9.88106215,40.4121764 10.3076762,38.5835374" id="Path-8-Copy-2" stroke="#B2BFCF" stroke-width="2.2" stroke-linecap="round"></path>
                        <path d="M21.9570578,47.5340136 L21.9570578,59.417517" id="Path-9" stroke="#8FC8DE" stroke-width="3" stroke-linecap="round"></path>
                        <path d="M14.6441327,51.2087585 L14.6441327,61.2640306" id="Path-9-Copy" stroke="#8FC8DE" stroke-width="3" stroke-linecap="round"></path>
                        <path d="M29.269983,51.2087585 L29.269983,61.2640306" id="Path-9-Copy-2" stroke="#8FC8DE" stroke-width="3" stroke-linecap="round"></path>
                    </g>
                </g>
            </g>
        </g>
    </g>
</svg>