<?xml version="1.0" encoding="UTF-8"?>
<svg width="63px" height="60px" viewBox="0 0 63 60" version="1.1" xmlns="http://www.w3.org/2000/svg" xmlns:xlink="http://www.w3.org/1999/xlink">
    <!-- Generator: Sketch 52.2 (67145) - http://www.bohemiancoding.com/sketch -->
    <title>01_01.icon0301.5878cf17</title>
    <desc>Created with Sketch.</desc>
    <g id="Page-1" stroke="none" stroke-width="1" fill="none" fill-rule="evenodd">
        <g id="Home-Copy-2" transform="translate(-851.000000, -947.000000)" fill-rule="nonzero">
            <g id="Group-4" transform="translate(209.000000, 932.000000)">
                <g id="01_01.icon0301.5878cf17" transform="translate(630.000000, 0.000000)">
                    <rect id="Rectangle-9" x="0" y="0" width="88" height="88"></rect>
                    <g id="Group-39" transform="translate(12.000000, 15.000000)">
                        <path d="M32.8106061,18.5034207 C25.6026417,18.5034207 4.62121212,20.3924317 4.62121212,30.1000401 C4.62121212,40.6798275 28.4385231,42.4587507 32.7044806,42.4587507 C37.1717433,42.9639706 61,40.1731871 61,30.1000401 C61,20.9686759 39.1524345,18.2278462 32.8106061,18.5034207 Z" id="Path-10" stroke="#D6DEE7" stroke-width="2.2" fill-opacity="0.0199999996" fill="#3DADD9"></path>
                        <path d="M31.8863641,18.503421 C24.6783998,18.503421 3.69697022,20.392432 3.69697022,30.1000404 C3.69697022,40.6798278 27.5142812,42.458751 31.7802387,42.458751 C36.2475014,42.9639709 60.0757581,40.1731874 60.0757581,30.1000404 C60.0757581,20.9686762 38.2281925,18.2278465 31.8863641,18.503421 Z" id="Path-10-Copy" stroke="#C7D1DD" stroke-width="2.2" fill-opacity="0.0399999991" fill="#3DADD9" transform="translate(31.886364, 30.500000) rotate(-120.000000) translate(-31.886364, -30.500000) "></path>
                        <path d="M31.8863638,18.503421 C24.6783995,18.503421 3.69696987,20.392432 3.69696987,30.1000404 C3.69696987,40.6798278 27.5142809,42.458751 31.7802384,42.458751 C36.2475011,42.9639709 60.0757578,40.1731874 60.0757578,30.1000404 C60.0757578,20.9686762 38.2281922,18.2278465 31.8863638,18.503421 Z" id="Path-10-Copy-2" stroke="#B2BFCF" stroke-width="2.2" fill-opacity="0.0599999987" fill="#3DADD9" transform="translate(31.886364, 30.500000) rotate(-60.000000) translate(-31.886364, -30.500000) "></path>
                        <g id="Group-41" transform="translate(41.590909, 0.924242)">
                            <circle id="Oval-6" fill="#F4F5F6" cx="4.62121212" cy="4.62121212" r="4.62121212"></circle>
                            <circle id="Oval-6" fill="#8FC8DE" cx="4.62121212" cy="4.62121212" r="2.77272727"></circle>
                        </g>
                        <g id="Group-41-Copy" transform="translate(0.000000, 26.803030)">
                            <circle id="Oval-6" fill="#F4F5F6" cx="4.62121212" cy="4.62121212" r="4.62121212"></circle>
                            <circle id="Oval-6" fill="#8FC8DE" cx="4.62121212" cy="4.62121212" r="2.77272727"></circle>
                        </g>
                        <g id="Group-41-Copy-2" transform="translate(41.590909, 49.909091)">
                            <circle id="Oval-6" fill="#F4F5F6" cx="4.62121212" cy="4.62121212" r="4.62121212"></circle>
                            <circle id="Oval-6" fill="#8FC8DE" cx="4.62121212" cy="4.62121212" r="2.77272727"></circle>
                        </g>
                    </g>
                </g>
            </g>
        </g>
    </g>
</svg>